<?xml version="1.0" encoding="UTF-8" standalone="no"?>
<svg
   xmlns:dc="http://purl.org/dc/elements/1.1/"
   xmlns:cc="http://creativecommons.org/ns#"
   xmlns:rdf="http://www.w3.org/1999/02/22-rdf-syntax-ns#"
   xmlns:svg="http://www.w3.org/2000/svg"
   xmlns="http://www.w3.org/2000/svg"
   xmlns:sodipodi="http://sodipodi.sourceforge.net/DTD/sodipodi-0.dtd"
   xmlns:inkscape="http://www.inkscape.org/namespaces/inkscape"
   class="bi bi-shield-lock"
   width="1em"
   height="1em"
   viewBox="0 0 16 16"
   fill="currentColor"
   version="1.1"
   id="svg8"
   sodipodi:docname="icon-team.svg"
   inkscape:version="0.92.4 (5da689c313, 2019-01-14)">
  <metadata
     id="metadata14">
    <rdf:RDF>
      <cc:Work
         rdf:about="">
        <dc:format>image/svg+xml</dc:format>
        <dc:type
           rdf:resource="http://purl.org/dc/dcmitype/StillImage" />
        <dc:title></dc:title>
      </cc:Work>
    </rdf:RDF>
  </metadata>
  <defs
     id="defs12" />
  <sodipodi:namedview
     pagecolor="#ffffff"
     bordercolor="#666666"
     borderopacity="1"
     objecttolerance="10"
     gridtolerance="10"
     guidetolerance="10"
     inkscape:pageopacity="0"
     inkscape:pageshadow="2"
     inkscape:window-width="1366"
     inkscape:window-height="715"
     id="namedview10"
     showgrid="false"
     inkscape:zoom="29.5"
     inkscape:cx="10.813536"
     inkscape:cy="8.7480896"
     inkscape:window-x="-8"
     inkscape:window-y="-8"
     inkscape:window-maximized="1"
     inkscape:current-layer="layer1" />
  <g
     inkscape:groupmode="layer"
     id="layer1"
     inkscape:label="Layer 1">
    <path
       style="opacity:1;fill:#ffffff;fill-opacity:1;stroke:none;stroke-width:1.81419051;stroke-linecap:round;stroke-linejoin:miter;stroke-miterlimit:4;stroke-dasharray:none;stroke-dashoffset:0;stroke-opacity:1"
       d="m 0.36485092,9.9645947 c 0.0319899,0.0495 0.0585543,0.1358853 0.0590625,0.1919563 4.8006e-4,0.05607 0.0991501,0.176867 0.21925981,0.268479 0.17836661,0.136047 0.29380356,0.170848 0.63000627,0.189845 l 0.4116833,0.02332 v 1.309349 c 0,1.390063 0.023268,1.536884 0.288753,1.817478 0.2984928,0.315481 0.403944,0.339612 1.481264,0.339612 1.0782294,0 1.1872017,-0.02504 1.4768111,-0.339612 0.086261,-0.0937 0.1875116,-0.262125 0.2250019,-0.374301 0.070659,-0.211419 0.094871,-1.246725 0.032931,-1.408138 -0.019381,-0.0505 -0.1671065,-0.135618 -0.3282454,-0.18914 C 4.4906371,11.670303 4.0165316,11.247777 3.8345712,10.878317 3.6979095,10.600833 3.6944722,10.550715 3.6777734,8.5845843 3.6632618,6.8763383 3.6751636,6.5250203 3.7574617,6.2445622 3.8107003,6.0630605 3.8589214,5.847058 3.8645715,5.7645574 L 3.8748868,5.6145559 2.4646385,5.5984991 C 1.1010179,5.582978 1.0457554,5.5869407 0.78848955,5.7185003 0.52714909,5.8521456 0.4998279,5.8829749 0.37504881,6.1845595 0.2320208,7.2118564 0.1236501,8.2969136 0.36485092,9.9645947 Z M 15.594796,6.1845595 C 15.470059,5.8830772 15.44273,5.8521772 15.183465,5.7195552 14.932558,5.5912076 14.85202,5.5845535 13.550324,5.5845535 c -1.102143,0 -1.375316,0.016043 -1.400638,0.082032 -0.0173,0.045087 0.02404,0.2466387 0.09188,0.4480122 0.114332,0.3393921 0.123235,0.5054758 0.121876,2.273107 -8.25e-4,1.0696872 -0.02823,2.0254383 -0.06246,2.1768963 -0.125057,0.553295 -0.609423,1.068035 -1.15841,1.231067 -0.16544,0.04913 -0.322163,0.123044 -0.348285,0.164181 -0.07257,0.114286 -0.05836,1.200142 0.01875,1.430873 0.03749,0.112176 0.138742,0.280603 0.225002,0.3743 0.289611,0.314576 0.398699,0.339613 1.476928,0.339613 1.07732,0 1.182655,-0.02413 1.481147,-0.339613 0.265484,-0.280593 0.28887,-0.427414 0.28887,-1.817477 v -1.309349 l 0.411567,-0.02332 c 0.336202,-0.019 0.45164,-0.0538 0.630006,-0.189845 0.120109,-0.09161 0.218755,-0.212409 0.21926,-0.26848 4.79e-4,-0.05607 0.02719,-0.142454 0.05918,-0.1919553 0.130391,-1.500832 0.07344,-2.6644547 -0.0102,-3.7800356 z M 7.9849221,0.54438843 c -0.761307,0 -1.5226259,0.4042153 -1.8955265,1.21266857 C 5.7526427,2.4871433 5.8871719,3.372932 6.4284225,3.9893821 6.8599232,4.4808339 7.3810372,4.694857 8.074923,4.6656781 8.4549831,4.6496969 8.6271832,4.6098023 8.9022749,4.4740746 9.3246402,4.2656837 9.682508,3.8905747 9.8932216,3.4350801 10.125894,2.9321186 10.120919,2.2784028 9.8804476,1.757057 9.5075477,0.94860373 8.7462284,0.54438843 7.9849221,0.54438843 Z M 3.4385896,1.7358453 C 3.1807434,1.7386653 2.9141677,1.7994403 2.6530738,1.9299102 1.3442777,2.5839233 1.389615,4.4447597 2.7299498,5.0850958 2.9923946,5.2104772 3.1016828,5.2276047 3.5148798,5.2080268 3.8516773,5.1920662 4.068427,5.1472818 4.2415658,5.0579079 4.6105174,4.8674582 5.0066013,4.39376 5.1330197,3.9918435 5.5085355,2.7979815 4.5559231,1.7235603 3.4385896,1.7358453 Z m 9.0925474,0 c -1.117333,-0.012286 -2.069946,1.0621362 -1.694431,2.2559982 0.166244,0.5285306 0.654458,1.0205437 1.167785,1.1766904 0.332223,0.101058 0.920276,0.059612 1.235285,-0.08707 1.339329,-0.6236475 1.385045,-2.497854 0.07688,-3.1515533 C 13.055559,1.7994398 12.788983,1.7386803 12.531137,1.7358453 Z M 7.9849221,5.1530658 c -1.4698399,0 -2.9397434,0.03486 -3.1062013,0.1044148 C 4.5943185,5.3763109 4.4061482,5.5533101 4.2440265,5.8545562 4.121145,6.082889 4.1139401,6.1849936 4.0951974,7.9545759 c -0.013509,1.2756916 0.00254,1.9615018 0.051096,2.1829901 0.138259,0.630814 0.6974872,1.027041 1.4495063,1.027041 h 0.2891046 l 3.599e-4,1.515015 c 1.799e-4,0.882886 0.026887,1.610638 0.063987,1.744235 0.07545,0.27171 0.4325083,0.687092 0.6856706,0.797586 0.2577013,0.112474 2.4189608,0.114319 2.6869011,0.0023 0.2623788,-0.109904 0.6212375,-0.520628 0.6987951,-0.799929 0.0371,-0.133597 0.06379,-0.86135 0.06399,-1.744236 l 3.6e-4,-1.515014 h 0.289105 c 0.752019,0 1.311246,-0.396227 1.449505,-1.027042 0.04855,-0.2214873 0.06461,-0.9072984 0.0511,-2.1829894 C 11.855928,6.1849853 11.848724,6.0828807 11.725841,5.8545473 11.563719,5.5533012 11.375432,5.376302 11.09103,5.2574717 10.924572,5.1879215 9.4547864,5.1530568 7.9849468,5.1530568 Z"
       id="rect2978"
       inkscape:connector-curvature="0"
       sodipodi:nodetypes="cccccssscccssscccccccccsccssscccsssccccccssssccsscscscscssscsscssscsccscccccssssscc" />
  </g>
</svg>
